<svg viewBox="-8192 -4096 16384 8192" xmlns="http://www.w3.org/2000/svg"><line x1="-3844.438" x2="-3858.94" y1="-2509.118" y2="-2512.949" stroke="orange" stroke-width="2" /><path d="M -4344.472 -2780.171 C -4368.732 -2812.118, -4434.57 -2890.283, -4420.597 -2875.029 " stroke="orange" stroke-width="2" fill="transparent" /><path d="M -4293.62 -2609.429 C -4298.142 -2637.853, -4319.484 -2732.642, -4311.227 -2699.983 " stroke="orange" stroke-width="2" fill="transparent" /><line x1="-4978.083" x2="-4976.912" y1="-1902.501" y2="-1917.455" stroke="orange" stroke-width="2" /><path d="M -4346.064 -2778.962 C -4370.325 -2810.909, -4436.044 -2888.932, -4422.071 -2873.678 " stroke="orange" stroke-width="2" fill="transparent" /><path d="M -4512.09 -3207.165 C -4500.945 -3197.125, -4414.39 -3133.814, -4436.827 -3151.871 " stroke="orange" stroke-width="2" fill="transparent" /><path d="M -4462.073 -2384.62 C -4416.04 -2401.785, -4247.892 -2428.925, -4297.236 -2435.806 " stroke="orange" stroke-width="2" fill="transparent" /><path d="M -4639.681 -2918.624 C -4665.361 -2902.305, -4745.315 -2829.012, -4712.216 -2862.542 " stroke="orange" stroke-width="2" fill="transparent" /><path d="M -4710.508 -2860.856 C -4713.114 -2858.216, -4721.751 -2849.384, -4719.116 -2852.041 " stroke="orange" stroke-width="2" fill="transparent" /><path d="M -4213.275 -2398.477 C -4233.781 -2420.438, -4288.989 -2513.594, -4272.995 -2479.016 " stroke="orange" stroke-width="2" fill="transparent" /><path d="M -3871.96 -2179.311 C -3905.018 -2194.553, -4036.216 -2247.865, -4008.983 -2233.634 " stroke="orange" stroke-width="2" fill="transparent" /><path d="M -4506.476 -3196.58 C -4469.188 -3161.241, -4493.71 -3091.518, -4486.475 -3107.826 " stroke="orange" stroke-width="2" fill="transparent" /><path d="M -3950.184 -2545.631 C -3970.462 -2555.095, -4044.38 -2596.174, -4025.373 -2584.946 " stroke="orange" stroke-width="2" fill="transparent" /><path d="M -4436.827 -3151.871 C -4414.39 -3133.814, -4310.604 -3051.934, -4333.041 -3069.991 " stroke="orange" stroke-width="2" fill="transparent" /><path d="M -5022.807 -2569.195 C -5022.949 -2574.49, -5019.396 -2587.765, -5019.148 -2583.415 " stroke="orange" stroke-width="2" fill="transparent" /><line x1="-3548.021" x2="-3557.379" y1="-1929.839" y2="-1941.561" stroke="orange" stroke-width="2" /><path d="M -4635.407 -2917.313 C -4652.727 -2906.119, -4743.607 -2827.326, -4710.508 -2860.856 " stroke="orange" stroke-width="2" fill="transparent" /><line x1="-5098.013" x2="-5095.533" y1="-2299.134" y2="-2313.927" stroke="orange" stroke-width="2" /><line x1="-4237.922" x2="-4225.597" y1="-2999.918" y2="-2991.369" stroke="orange" stroke-width="2" /><path d="M -4172.698 -2344.242 C -4148.368 -2323.846, -4072.396 -2268.408, -4102.164 -2288.823 " stroke="orange" stroke-width="2" fill="transparent" /><line x1="-4676.06" x2="-4664.141" y1="-3332.553" y2="-3323.447" stroke="orange" stroke-width="2" /><line x1="-4524.571" x2="-4513.429" y1="-3215.721" y2="-3205.679" stroke="orange" stroke-width="2" /><path d="M -4513.429 -3205.679 C -4509.541 -3202.175, -4501.38 -3194.506, -4505.101 -3198.032 " stroke="orange" stroke-width="2" fill="transparent" /><path d="M -4328.395 -2619.9 C -4355.558 -2667.318, -4479.114 -2692.659, -4434.022 -2687.835 " stroke="orange" stroke-width="2" fill="transparent" /><path d="M -4309.288 -2700.474 C -4317.545 -2733.133, -4368.732 -2812.118, -4344.472 -2780.171 " stroke="orange" stroke-width="2" fill="transparent" /><line x1="-4089.61" x2="-4077.102" y1="-2276.638" y2="-2268.358" stroke="orange" stroke-width="2" /><path d="M -4568.042 -2782.835 C -4573.51 -2782.789, -4587.535 -2778.164, -4582.002 -2778.262 " stroke="orange" stroke-width="2" fill="transparent" /><path d="M -4709.084 -2859.451 C -4711.691 -2856.811, -4723.171 -2850.792, -4720.536 -2853.449 " stroke="orange" stroke-width="2" fill="transparent" /><line x1="-4582.044" x2="-4612.04" y1="-2780.661" y2="-2780.138" stroke="orange" stroke-width="2" /><path d="M -3949.338 -2547.444 C -3969.616 -2556.907, -4043.363 -2597.896, -4024.356 -2586.668 " stroke="orange" stroke-width="2" fill="transparent" /><path d="M -4972.923 -1917.143 C -4969.341 -1962.895, -4980.25 -2124.774, -4977.094 -2066.512 " stroke="orange" stroke-width="2" fill="transparent" /><path d="M -3878.016 -2526.163 C -3875.681 -2520.698, -3845.051 -2506.797, -3859.554 -2510.629 " stroke="orange" stroke-width="2" fill="transparent" /><line x1="-5094.068" x2="-5091.587" y1="-2298.473" y2="-2313.266" stroke="orange" stroke-width="2" /><path d="M -4095.026 -2649.63 C -4018.409 -2611.862, -3892.311 -2549.702, -3935.17 -2570.829 " stroke="orange" stroke-width="2" fill="transparent" /><path d="M -4266.664 -2703.236 C -4320.501 -2697.723, -4478.646 -2697.034, -4433.554 -2692.21 " stroke="orange" stroke-width="2" fill="transparent" /><line x1="-3844.949" x2="-3859.451" y1="-2507.184" y2="-2511.016" stroke="orange" stroke-width="2" /><path d="M -4099.584 -2292.122 C -4132.729 -2315.068, -4233.781 -2420.438, -4213.275 -2398.477 " stroke="orange" stroke-width="2" fill="transparent" /><path d="M -4513.707 -2718.934 C -4533.449 -2735.644, -4608.124 -2775.8, -4571.969 -2776.439 " stroke="orange" stroke-width="2" fill="transparent" /><path d="M -5033.468 -3427.083 C -5028.544 -3426.225, -5015.739 -3422.583, -5021.972 -3423.677 " stroke="orange" stroke-width="2" fill="transparent" /><path d="M -5071.392 -2257.757 C -5089.405 -2265.027, -5114.223 -2281.098, -5107.983 -2271.583 " stroke="orange" stroke-width="2" fill="transparent" /><path d="M -4589.525 -3269.747 C -4572.495 -3256.99, -4514.174 -3207.908, -4534.295 -3225.831 " stroke="orange" stroke-width="2" fill="transparent" /><path d="M -5022.807 -2569.195 C -5022.949 -2574.49, -5023.788 -2587.521, -5023.54 -2583.17 " stroke="orange" stroke-width="2" fill="transparent" /><path d="M -4709.084 -2859.451 C -4711.691 -2856.811, -4721.751 -2849.384, -4719.116 -2852.041 " stroke="orange" stroke-width="2" fill="transparent" /><path d="M -4025.373 -2584.946 C -4044.38 -2596.174, -4155.291 -2666.787, -4127.236 -2649.189 " stroke="orange" stroke-width="2" fill="transparent" /><path d="M -4433.81 -2689.824 C -4478.901 -2694.648, -4532.157 -2737.171, -4512.415 -2720.461 " stroke="orange" stroke-width="2" fill="transparent" /><path d="M -4568.042 -2782.835 C -4573.51 -2782.789, -4585.978 -2780.592, -4582.044 -2780.661 " stroke="orange" stroke-width="2" fill="transparent" /><path d="M -4534.295 -3225.831 C -4529.78 -3221.809, -4520.684 -3212.217, -4524.572 -3215.721 " stroke="orange" stroke-width="2" fill="transparent" /><path d="M -5046.806 -2430.608 C -5027.811 -2469.294, -5022.925 -2628.647, -5019.812 -2569.353 " stroke="orange" stroke-width="2" fill="transparent" /><path d="M -4266.868 -2705.225 C -4320.705 -2699.713, -4478.433 -2699.023, -4433.341 -2694.199 " stroke="orange" stroke-width="2" fill="transparent" /><line x1="-4976.088" x2="-4974.917" y1="-1902.345" y2="-1917.299" stroke="orange" stroke-width="2" /><line x1="-3859.553" x2="-3845.051" y1="-2510.629" y2="-2506.798" stroke="orange" stroke-width="2" /><path d="M -4225.597 -2991.369 C -4169.325 -2952.346, -4167.121 -2770.761, -4154.505 -2829.979 " stroke="orange" stroke-width="2" fill="transparent" /><line x1="-4674.845" x2="-4662.926" y1="-3334.143" y2="-3325.036" stroke="orange" stroke-width="2" /><path d="M -4579.076 -2950.992 C -4607.309 -2931.908, -4651.642 -2904.44, -4634.321 -2915.633 " stroke="orange" stroke-width="2" fill="transparent" /><path d="M -3675.209 -2053.976 C -3687.683 -2065.605, -3789.257 -2140.115, -3760.831 -2122.958 " stroke="orange" stroke-width="2" fill="transparent" /><line x1="-5099.985" x2="-5097.505" y1="-2299.465" y2="-2314.259" stroke="orange" stroke-width="2" /><path d="M -3557.381 -1941.562 C -3566.74 -1953.281, -3600.94 -1987.481, -3588.466 -1975.853 " stroke="orange" stroke-width="2" fill="transparent" /><line x1="-4977.093" x2="-4977.907" y1="-2066.511" y2="-2081.489" stroke="orange" stroke-width="2" /><path d="M -4127.236 -2649.189 C -4155.291 -2666.787, -4320.501 -2697.723, -4266.664 -2703.236 " stroke="orange" stroke-width="2" fill="transparent" /><path d="M -4567.006 -2780.881 C -4572.475 -2780.835, -4585.942 -2778.592, -4582.009 -2778.662 " stroke="orange" stroke-width="2" fill="transparent" /><path d="M -4505.1 -3198.032 C -4467.813 -3162.693, -4491.882 -3090.707, -4484.647 -3107.015 " stroke="orange" stroke-width="2" fill="transparent" /><path d="M -4571.968 -2776.439 C -4575.437 -2776.409, -4585.9 -2776.193, -4581.967 -2776.262 " stroke="orange" stroke-width="2" fill="transparent" /><path d="M -3558.944 -1940.314 C -3568.303 -1952.033, -3602.304 -1986.018, -3589.83 -1974.39 " stroke="orange" stroke-width="2" fill="transparent" /><path d="M -4640.753 -2920.312 C -4666.434 -2903.993, -4746.738 -2830.417, -4713.639 -2863.947 " stroke="orange" stroke-width="2" fill="transparent" /><path d="M -4673.686 -2297.427 C -4557.577 -2321.854, -4404.992 -2408.039, -4476.827 -2381.253 " stroke="orange" stroke-width="2" fill="transparent" /><line x1="-4074.894" x2="-4087.402" y1="-2271.694" y2="-2279.974" stroke="orange" stroke-width="2" /><path d="M -3588.466 -1975.853 C -3600.94 -1987.481, -3686.319 -2067.068, -3673.845 -2055.439 " stroke="orange" stroke-width="2" fill="transparent" /><path d="M -4462.772 -2386.494 C -4390.937 -2413.28, -4332.679 -2508.411, -4348.083 -2482.583 " stroke="orange" stroke-width="2" fill="transparent" /><line x1="-4582.009" x2="-4612.004" y1="-2778.662" y2="-2778.138" stroke="orange" stroke-width="2" /><path d="M -4989.2 -2076.385 C -4996.13 -2127.9, -5043.324 -2234.968, -5024.119 -2198.227 " stroke="orange" stroke-width="2" fill="transparent" /><path d="M -5047.492 -2437.328 C -5033.001 -2472.434, -5025.947 -2628.985, -5022.808 -2569.196 " stroke="orange" stroke-width="2" fill="transparent" /><path d="M -3859.452 -2511.016 C -3865.569 -2512.63, -3879.421 -2516.285, -3873.304 -2514.671 " stroke="orange" stroke-width="2" fill="transparent" /><line x1="-5023.542" x2="-5024.657" y1="-2583.169" y2="-2603.138" stroke="orange" stroke-width="2" /><path d="M -4348.083 -2482.583 C -4332.679 -2508.411, -4355.558 -2667.318, -4328.395 -2619.9 " stroke="orange" stroke-width="2" fill="transparent" /><path d="M -4173.983 -2342.709 C -4149.652 -2322.313, -4073.527 -2266.759, -4103.295 -2287.174 " stroke="orange" stroke-width="2" fill="transparent" /><path d="M -4713.639 -2863.948 C -4716.246 -2861.307, -4724.875 -2852.483, -4722.24 -2855.14 " stroke="orange" stroke-width="2" fill="transparent" /><path d="M -4690.531 -3344.897 C -4682.43 -3338.707, -4667.958 -3326.364, -4676.06 -3332.554 " stroke="orange" stroke-width="2" fill="transparent" /><path d="M -4979.905 -2081.38 C -4983.061 -2139.642, -5022.88 -2231.551, -5005.382 -2198.385 " stroke="orange" stroke-width="2" fill="transparent" /><path d="M -5019.807 -2569.349 C -5019.949 -2574.643, -5021.394 -2587.654, -5021.146 -2583.303 " stroke="orange" stroke-width="2" fill="transparent" /><path d="M -4297.236 -2435.806 C -4247.892 -2428.925, -4149.652 -2322.313, -4173.983 -2342.709 " stroke="orange" stroke-width="2" fill="transparent" /><path d="M -4102.164 -2288.823 C -4096.256 -2284.772, -4083.356 -2272.498, -4089.609 -2276.638 " stroke="orange" stroke-width="2" fill="transparent" /><path d="M -4462.073 -2384.62 C -4390.238 -2411.406, -4330.961 -2507.386, -4346.365 -2481.558 " stroke="orange" stroke-width="2" fill="transparent" /><path d="M -4662.926 -3325.035 C -4654.825 -3318.845, -4632.969 -3301.506, -4643.934 -3309.719 " stroke="orange" stroke-width="2" fill="transparent" /><line x1="-4528.071" x2="-4536.144" y1="-3026.352" y2="-3013.709" stroke="orange" stroke-width="2" /><line x1="-4075.998" x2="-4088.506" y1="-2270.026" y2="-2278.306" stroke="orange" stroke-width="2" /><path d="M -4252.205 -3005.815 C -4247.557 -3002.627, -4233.256 -2996.682, -4237.923 -2999.918 " stroke="orange" stroke-width="2" fill="transparent" /><path d="M -5093.892 -2323.79 C -5085.04 -2376.865, -5033.001 -2472.434, -5047.492 -2437.328 " stroke="orange" stroke-width="2" fill="transparent" /><path d="M -4103.295 -2287.174 C -4097.388 -2283.122, -4083.356 -2272.498, -4089.609 -2276.638 " stroke="orange" stroke-width="2" fill="transparent" /><path d="M -5081.022 -2319.644 C -5047.414 -2314.616, -4557.165 -2319.897, -4673.274 -2295.47 " stroke="orange" stroke-width="2" fill="transparent" /><path d="M -4573.004 -2778.393 C -4576.473 -2778.364, -4585.935 -2778.192, -4582.002 -2778.262 " stroke="orange" stroke-width="2" fill="transparent" /><path d="M -4252.205 -3005.815 C -4247.557 -3002.627, -4234.396 -2995.038, -4239.063 -2998.275 " stroke="orange" stroke-width="2" fill="transparent" /><path d="M -4568.042 -2782.835 C -4573.51 -2782.789, -4585.942 -2778.592, -4582.009 -2778.662 " stroke="orange" stroke-width="2" fill="transparent" /><path d="M -4976.912 -1917.455 C -4974.315 -1950.566, -4994.148 -2128.167, -4987.218 -2076.651 " stroke="orange" stroke-width="2" fill="transparent" /><path d="M -3935.17 -2570.829 C -3892.311 -2549.702, -3872.249 -2512.667, -3878.016 -2526.163 " stroke="orange" stroke-width="2" fill="transparent" /><path d="M -4513.429 -3205.679 C -4509.541 -3202.175, -4502.755 -3193.054, -4506.476 -3196.58 " stroke="orange" stroke-width="2" fill="transparent" /><path d="M -4486.475 -3107.826 C -4493.71 -3091.518, -4536.144 -3013.708, -4528.071 -3026.352 " stroke="orange" stroke-width="2" fill="transparent" /><path d="M -4978.906 -1917.612 C -4976.309 -1950.722, -4996.13 -2127.9, -4989.2 -2076.385 " stroke="orange" stroke-width="2" fill="transparent" /><path d="M -4712.216 -2862.542 C -4714.822 -2859.902, -4724.875 -2852.483, -4722.24 -2855.14 " stroke="orange" stroke-width="2" fill="transparent" /><path d="M -4510.864 -2722.293 C -4530.606 -2739.003, -4603.161 -2780.242, -4567.006 -2780.881 " stroke="orange" stroke-width="2" fill="transparent" /><line x1="-4476.127" x2="-4462.073" y1="-2379.379" y2="-2384.621" stroke="orange" stroke-width="2" /><path d="M -4326.659 -2620.894 C -4353.823 -2668.313, -4478.901 -2694.648, -4433.81 -2689.824 " stroke="orange" stroke-width="2" fill="transparent" /><path d="M -4536.144 -3013.708 C -4544.216 -3001.064, -4586.505 -2952.031, -4569.756 -2969.119 " stroke="orange" stroke-width="2" fill="transparent" /><path d="M -4977.908 -2081.49 C -4981.102 -2140.473, -5013.61 -2226.796, -4999.845 -2195.945 " stroke="orange" stroke-width="2" fill="transparent" /><path d="M -4434.022 -2687.835 C -4479.114 -2692.659, -4533.449 -2735.644, -4513.707 -2718.934 " stroke="orange" stroke-width="2" fill="transparent" /><path d="M -5022.347 -2199.153 C -5041.551 -2235.894, -5094.094 -2267.118, -5086.214 -2260.936 " stroke="orange" stroke-width="2" fill="transparent" /><path d="M -5086.214 -2260.936 C -5090.815 -2264.545, -5100.056 -2288.642, -5098.629 -2279.157 " stroke="orange" stroke-width="2" fill="transparent" /><path d="M -4087.401 -2279.973 C -4095.124 -2285.083, -4106.137 -2296.878, -4099.584 -2292.122 " stroke="orange" stroke-width="2" fill="transparent" /><path d="M -4462.772 -2386.494 C -4443.074 -2394.096, -4390.372 -2429.859, -4409.911 -2419.251 C -4390.372 -2429.859, -4330.474 -2443.288, -4350.942 -2440.834 C -4330.474 -2443.288, -4270.345 -2434.075, -4296.96 -2437.787 " stroke="orange" stroke-width="2" fill="transparent" /><path d="M -5005.382 -2198.385 C -5022.88 -2231.551, -5089.405 -2265.027, -5071.392 -2257.757 " stroke="orange" stroke-width="2" fill="transparent" /><path d="M -3874.728 -2517.115 C -3904.033 -2524.847, -3969.616 -2556.907, -3949.338 -2547.444 " stroke="orange" stroke-width="2" fill="transparent" /><line x1="-4979.09" x2="-4979.904" y1="-2066.402" y2="-2081.38" stroke="orange" stroke-width="2" /><path d="M -4156.461 -2830.396 C -4169.077 -2771.178, -4018.409 -2611.862, -4095.026 -2649.63 " stroke="orange" stroke-width="2" fill="transparent" /><path d="M -5019.807 -2569.349 C -5019.949 -2574.643, -5023.788 -2587.521, -5023.54 -2583.17 " stroke="orange" stroke-width="2" fill="transparent" /><path d="M -4580.196 -2952.649 C -4608.429 -2933.565, -4652.727 -2906.119, -4635.407 -2917.313 " stroke="orange" stroke-width="2" fill="transparent" /><path d="M -4475.211 -2934.64 C -4503.382 -2965.393, -4605.13 -2933.381, -4579.076 -2950.992 " stroke="orange" stroke-width="2" fill="transparent" /><line x1="-4534.526" x2="-4542.598" y1="-3013.27" y2="-3000.626" stroke="orange" stroke-width="2" /><path d="M -4226.736 -2989.725 C -4170.464 -2950.703, -4169.077 -2771.178, -4156.461 -2830.396 " stroke="orange" stroke-width="2" fill="transparent" /><path d="M -4567.006 -2780.881 C -4570.475 -2780.852, -4585.978 -2780.592, -4582.044 -2780.661 " stroke="orange" stroke-width="2" fill="transparent" /><path d="M -4484.647 -3107.015 C -4491.882 -3090.707, -4527.093 -3024.245, -4521.709 -3032.996 " stroke="orange" stroke-width="2" fill="transparent" /><path d="M -5024.119 -2198.227 C -5043.324 -2234.968, -5095.329 -2265.545, -5087.449 -2259.362 " stroke="orange" stroke-width="2" fill="transparent" /><path d="M -4673.274 -2295.47 C -4557.165 -2319.897, -4404.293 -2406.165, -4476.128 -2379.379 " stroke="orange" stroke-width="2" fill="transparent" /><path d="M -4567.006 -2780.881 C -4572.475 -2780.835, -4588.335 -2778.15, -4582.002 -2778.262 " stroke="orange" stroke-width="2" fill="transparent" /><path d="M -4346.365 -2481.558 C -4330.961 -2507.386, -4353.823 -2668.313, -4326.659 -2620.894 " stroke="orange" stroke-width="2" fill="transparent" /><line x1="-4719.116" x2="-4740.244" y1="-2852.041" y2="-2830.742" stroke="orange" stroke-width="2" /><path d="M -4154.505 -2829.979 C -4167.121 -2770.761, -4017.525 -2613.656, -4094.142 -2651.424 " stroke="orange" stroke-width="2" fill="transparent" /><path d="M -4433.341 -2694.199 C -4478.433 -2699.023, -4529.314 -2740.529, -4509.572 -2723.819 " stroke="orange" stroke-width="2" fill="transparent" /><path d="M -4100.722 -2290.478 C -4133.867 -2313.424, -4235.243 -2419.073, -4214.737 -2397.112 " stroke="orange" stroke-width="2" fill="transparent" /><path d="M -4512.415 -2720.461 C -4532.157 -2737.171, -4613.158 -2777.684, -4573.004 -2778.393 " stroke="orange" stroke-width="2" fill="transparent" /><line x1="-3549.584" x2="-3558.942" y1="-1928.591" y2="-1940.314" stroke="orange" stroke-width="2" /><path d="M -4291.645 -2609.743 C -4296.167 -2638.167, -4317.545 -2733.133, -4309.288 -2700.474 " stroke="orange" stroke-width="2" fill="transparent" /><path d="M -4008.057 -2235.406 C -4035.289 -2249.638, -4087.399 -2279.976, -4074.895 -2271.694 " stroke="orange" stroke-width="2" fill="transparent" /><path d="M -5091.919 -2323.461 C -5085.041 -2364.703, -5027.811 -2469.294, -5046.806 -2430.608 " stroke="orange" stroke-width="2" fill="transparent" /><path d="M -5087.449 -2259.362 C -5095.329 -2265.545, -5102.354 -2289.523, -5104.417 -2281.299 " stroke="orange" stroke-width="2" fill="transparent" /><path d="M -4690.531 -3344.897 C -4682.43 -3338.707, -4666.744 -3327.953, -4674.845 -3334.143 " stroke="orange" stroke-width="2" fill="transparent" /><path d="M -3858.941 -2512.95 C -3865.059 -2514.564, -3880.845 -2518.729, -3874.728 -2517.115 " stroke="orange" stroke-width="2" fill="transparent" /><path d="M -4664.141 -3323.446 C -4656.04 -3317.256, -4632.969 -3301.506, -4643.934 -3309.719 " stroke="orange" stroke-width="2" fill="transparent" /><path d="M -4296.96 -2437.787 C -4247.615 -2430.905, -4148.368 -2323.846, -4172.698 -2344.242 " stroke="orange" stroke-width="2" fill="transparent" /><path d="M -4094.142 -2651.424 C -4017.525 -2613.656, -3891.427 -2551.496, -3934.285 -2572.623 " stroke="orange" stroke-width="2" fill="transparent" /><path d="M -4311.227 -2699.983 C -4319.484 -2732.642, -4370.325 -2810.909, -4346.064 -2778.962 " stroke="orange" stroke-width="2" fill="transparent" /><path d="M -4422.071 -2873.678 C -4436.044 -2888.932, -4503.382 -2965.393, -4475.211 -2934.64 " stroke="orange" stroke-width="2" fill="transparent" /><path d="M -5104.417 -2281.299 C -5102.354 -2289.523, -5096.865 -2305.983, -5098.013 -2299.135 " stroke="orange" stroke-width="2" fill="transparent" /><line x1="-5048.589" x2="-5033.812" y1="-3427.687" y2="-3425.113" stroke="orange" stroke-width="2" /><path d="M -5091.587 -2313.265 C -5090.982 -2316.875, -5075.253 -2318.781, -5081.022 -2319.644 " stroke="orange" stroke-width="2" fill="transparent" /><path d="M -5084.45 -2322.092 C -5050.841 -2317.064, -4557.577 -2321.854, -4673.686 -2297.427 " stroke="orange" stroke-width="2" fill="transparent" /><path d="M -3876.177 -2526.949 C -3874.628 -2523.323, -3845.051 -2506.797, -3859.554 -2510.629 " stroke="orange" stroke-width="2" fill="transparent" /><path d="M -4008.983 -2233.634 C -4036.216 -2247.865, -4088.504 -2278.309, -4075.999 -2270.026 " stroke="orange" stroke-width="2" fill="transparent" /><path d="M -4126.173 -2650.884 C -4154.228 -2668.481, -4320.705 -2699.713, -4266.868 -2705.225 " stroke="orange" stroke-width="2" fill="transparent" /><line x1="-4582.002" x2="-4597" y1="-2778.262" y2="-2778" stroke="orange" stroke-width="2" /><path d="M -4894.011 -3404.287 C -4845.568 -3394.757, -4643.98 -3309.326, -4690.531 -3344.897 " stroke="orange" stroke-width="2" fill="transparent" /><line x1="-4720.536" x2="-4741.664" y1="-2853.449" y2="-2832.151" stroke="orange" stroke-width="2" /><path d="M -5074.439 -2265.797 C -5082.057 -2270.289, -5091.773 -2313.384, -5094.067 -2298.473 " stroke="orange" stroke-width="2" fill="transparent" /><path d="M -4274.81 -2478.177 C -4290.804 -2512.754, -4298.142 -2637.853, -4293.62 -2609.429 " stroke="orange" stroke-width="2" fill="transparent" /><path d="M -4643.934 -3309.719 C -4626.904 -3296.963, -4572.495 -3256.99, -4589.525 -3269.747 " stroke="orange" stroke-width="2" fill="transparent" /><path d="M -5022.807 -2569.195 C -5022.949 -2574.49, -5021.793 -2587.632, -5021.545 -2583.281 " stroke="orange" stroke-width="2" fill="transparent" /><line x1="-5019.148" x2="-5020.264" y1="-2583.415" y2="-2603.383" stroke="orange" stroke-width="2" /><line x1="-4523.232" x2="-4512.09" y1="-3217.207" y2="-3207.165" stroke="orange" stroke-width="2" /><path d="M -5019.807 -2569.349 C -5019.949 -2574.643, -5019.396 -2587.765, -5019.148 -2583.415 " stroke="orange" stroke-width="2" fill="transparent" /><path d="M -3759.797 -2124.671 C -3788.223 -2141.828, -3904.18 -2196.369, -3871.123 -2181.127 " stroke="orange" stroke-width="2" fill="transparent" /><path d="M -3589.83 -1974.39 C -3602.304 -1986.018, -3687.683 -2065.605, -3675.209 -2053.976 " stroke="orange" stroke-width="2" fill="transparent" /><path d="M -5021.972 -3423.677 C -4998.348 -3419.531, -4839.782 -3393.619, -4894.011 -3404.287 " stroke="orange" stroke-width="2" fill="transparent" /><line x1="-5048.246" x2="-5033.468" y1="-3429.657" y2="-3427.083" stroke="orange" stroke-width="2" /><path d="M -4573.004 -2778.393 C -4576.473 -2778.364, -4585.9 -2776.193, -4581.967 -2776.262 " stroke="orange" stroke-width="2" fill="transparent" /><path d="M -4999.845 -2195.945 C -5013.61 -2226.796, -5082.057 -2270.289, -5074.439 -2265.797 " stroke="orange" stroke-width="2" fill="transparent" /><path d="M -4333.041 -3069.991 C -4310.604 -3051.934, -4232.928 -2992.593, -4252.205 -3005.815 " stroke="orange" stroke-width="2" fill="transparent" /><line x1="-4239.063" x2="-4226.737" y1="-2998.275" y2="-2989.725" stroke="orange" stroke-width="2" /><path d="M -5098.629 -2279.157 C -5100.056 -2288.642, -5094.893 -2305.653, -5096.041 -2298.804 " stroke="orange" stroke-width="2" fill="transparent" /><path d="M -3873.304 -2514.671 C -3905.269 -2523.105, -3970.462 -2555.095, -3950.184 -2545.631 " stroke="orange" stroke-width="2" fill="transparent" /><path d="M -4024.356 -2586.668 C -4043.363 -2597.896, -4154.228 -2668.481, -4126.173 -2650.884 " stroke="orange" stroke-width="2" fill="transparent" /><path d="M -4534.295 -3225.831 C -4529.78 -3221.809, -4519.345 -3213.702, -4523.233 -3217.207 " stroke="orange" stroke-width="2" fill="transparent" /><path d="M -5095.532 -2313.927 C -5094.927 -2317.536, -5093.109 -2327.921, -5093.893 -2323.789 " stroke="orange" stroke-width="2" fill="transparent" /><line x1="-4581.967" x2="-4596.965" y1="-2776.262" y2="-2776" stroke="orange" stroke-width="2" /><path d="M -4521.709 -3032.996 C -4527.093 -3024.245, -4538.613 -3006.867, -4534.526 -3013.27 " stroke="orange" stroke-width="2" fill="transparent" /><path d="M -5033.811 -3425.113 C -5028.887 -3424.254, -5015.739 -3422.583, -5021.972 -3423.677 " stroke="orange" stroke-width="2" fill="transparent" /><path d="M -4214.737 -2397.112 C -4235.243 -2419.073, -4290.804 -2512.754, -4274.81 -2478.177 " stroke="orange" stroke-width="2" fill="transparent" /><path d="M -4634.321 -2915.633 C -4651.642 -2904.44, -4742.184 -2825.921, -4709.084 -2859.451 " stroke="orange" stroke-width="2" fill="transparent" /><path d="M -4420.597 -2875.029 C -4434.57 -2890.283, -4501.908 -2966.744, -4473.737 -2935.991 " stroke="orange" stroke-width="2" fill="transparent" /><path d="M -3760.831 -2122.958 C -3789.257 -2140.115, -3905.018 -2194.553, -3871.96 -2179.311 " stroke="orange" stroke-width="2" fill="transparent" /><path d="M -4433.554 -2692.21 C -4478.646 -2697.034, -4530.606 -2739.003, -4510.864 -2722.293 " stroke="orange" stroke-width="2" fill="transparent" /><line x1="-4476.826" x2="-4462.771" y1="-2381.253" y2="-2386.495" stroke="orange" stroke-width="2" /><path d="M -4473.737 -2935.991 C -4501.908 -2966.744, -4608.429 -2933.565, -4580.196 -2952.649 " stroke="orange" stroke-width="2" fill="transparent" /><path d="M -5093.56 -2313.596 C -5092.954 -2317.205, -5091.144 -2327.548, -5091.928 -2323.417 " stroke="orange" stroke-width="2" fill="transparent" /><path d="M -3673.845 -2055.439 C -3686.319 -2067.068, -3788.223 -2141.828, -3759.797 -2124.671 " stroke="orange" stroke-width="2" fill="transparent" /><path d="M -4542.598 -3000.627 C -4544.687 -2997.354, -4585.077 -2950.631, -4568.328 -2967.719 " stroke="orange" stroke-width="2" fill="transparent" /><path d="M -4571.968 -2776.439 C -4575.437 -2776.409, -4585.935 -2778.192, -4582.002 -2778.262 " stroke="orange" stroke-width="2" fill="transparent" /><path d="M -3871.123 -2181.127 C -3904.18 -2196.369, -4035.289 -2249.638, -4008.057 -2235.406 " stroke="orange" stroke-width="2" fill="transparent" /><path d="M -4088.504 -2278.305 C -4096.228 -2283.415, -4107.276 -2295.234, -4100.723 -2290.478 " stroke="orange" stroke-width="2" fill="transparent" /><path d="M -5022.807 -2569.195 C -5022.949 -2574.49, -5021.394 -2587.654, -5021.146 -2583.303 " stroke="orange" stroke-width="2" fill="transparent" /><path d="M -5019.807 -2569.349 C -5019.949 -2574.643, -5021.793 -2587.632, -5021.545 -2583.281 " stroke="orange" stroke-width="2" fill="transparent" /><line x1="-5021.146" x2="-5022.261" y1="-2583.303" y2="-2603.272" stroke="orange" stroke-width="2" /><path d="M -4509.572 -2723.819 C -4529.314 -2740.529, -4608.196 -2782.125, -4568.042 -2782.834 " stroke="orange" stroke-width="2" fill="transparent" /><line x1="-4086.298" x2="-4073.79" y1="-2281.641" y2="-2273.361" stroke="orange" stroke-width="2" /><line x1="-5096.041" x2="-5093.56" y1="-2298.803" y2="-2313.597" stroke="orange" stroke-width="2" /><line x1="-4980.076" x2="-4978.905" y1="-1902.657" y2="-1917.612" stroke="orange" stroke-width="2" /><line x1="-4722.24" x2="-4732.804" y1="-2855.14" y2="-2844.49" stroke="orange" stroke-width="2" /><path d="M -3934.285 -2572.623 C -3891.427 -2551.496, -3870.41 -2513.453, -3876.177 -2526.949 " stroke="orange" stroke-width="2" fill="transparent" /><path d="M -4974.917 -1917.299 C -4971.335 -1963.051, -4982.248 -2124.666, -4979.091 -2066.404 " stroke="orange" stroke-width="2" fill="transparent" /><line x1="-4720.82" x2="-4731.384" y1="-2853.731" y2="-2843.082" stroke="orange" stroke-width="2" /><line x1="-5021.544" x2="-5022.66" y1="-2583.281" y2="-2603.25" stroke="orange" stroke-width="2" /><path d="M -4710.508 -2860.856 C -4713.114 -2858.216, -4723.171 -2850.793, -4720.536 -2853.449 " stroke="orange" stroke-width="2" fill="transparent" /><path d="M -5097.505 -2314.258 C -5096.899 -2317.867, -5077.227 -2321.178, -5084.45 -2322.092 " stroke="orange" stroke-width="2" fill="transparent" /><line x1="-4974.094" x2="-4972.923" y1="-1902.189" y2="-1917.144" stroke="orange" stroke-width="2" /><path d="M -4569.756 -2969.119 C -4586.505 -2952.031, -4666.434 -2903.993, -4640.753 -2920.312 " stroke="orange" stroke-width="2" fill="transparent" /><path d="M -4568.328 -2967.719 C -4585.077 -2950.631, -4665.361 -2902.305, -4639.681 -2918.624 " stroke="orange" stroke-width="2" fill="transparent" /><path d="M -4272.995 -2479.016 C -4288.989 -2513.594, -4296.167 -2638.167, -4291.645 -2609.743 " stroke="orange" stroke-width="2" fill="transparent" /><path d="M -4987.218 -2076.651 C -4994.148 -2128.167, -5041.551 -2235.894, -5022.347 -2199.153 " stroke="orange" stroke-width="2" fill="transparent" /><path d="M -5107.983 -2271.583 C -5114.223 -2281.098, -5098.746 -2306.864, -5099.985 -2299.465 " stroke="orange" stroke-width="2" fill="transparent" /></svg>